<mxfile host="Electron" modified="2023-05-03T15:23:22.493Z" agent="Mozilla/5.0 (Windows NT 10.0; Win64; x64) AppleWebKit/537.36 (KHTML, like Gecko) draw.io/21.2.1 Chrome/112.0.5615.87 Electron/24.1.2 Safari/537.36" etag="cOF40wV1Xuuq8RkqBi8F" version="21.2.1" type="device">
  <diagram name="第 1 页" id="F0eSCvMAZUqYHKZoR_w8">
    <mxGraphModel dx="1780" dy="5497" grid="1" gridSize="10" guides="1" tooltips="1" connect="0" arrows="1" fold="1" page="1" pageScale="1" pageWidth="3300" pageHeight="4681" background="#b8cfbd" math="0" shadow="0">
      <root>
        <mxCell id="0" />
        <mxCell id="1" parent="0" />
        <mxCell id="1waXbNax_19e2kxOFytn-2" value="edu_course&lt;br&gt;课程" style="swimlane;fontStyle=0;childLayout=stackLayout;horizontal=1;startSize=30;horizontalStack=0;resizeParent=1;resizeParentMax=0;resizeLast=0;collapsible=1;marginBottom=0;whiteSpace=wrap;html=1;" vertex="1" parent="1">
          <mxGeometry x="324" y="135" width="189" height="441" as="geometry">
            <mxRectangle x="315" y="126" width="99" height="30" as="alternateBounds" />
          </mxGeometry>
        </mxCell>
        <mxCell id="1waXbNax_19e2kxOFytn-3" value="id:课程唯一标识" style="text;strokeColor=none;fillColor=none;align=left;verticalAlign=middle;spacingLeft=4;spacingRight=4;overflow=hidden;points=[[0,0.5],[1,0.5]];portConstraint=eastwest;rotatable=0;whiteSpace=wrap;html=1;" vertex="1" parent="1waXbNax_19e2kxOFytn-2">
          <mxGeometry y="30" width="189" height="30" as="geometry" />
        </mxCell>
        <mxCell id="1waXbNax_19e2kxOFytn-4" value="teacher_id:讲师id" style="text;strokeColor=none;fillColor=none;align=left;verticalAlign=middle;spacingLeft=4;spacingRight=4;overflow=hidden;points=[[0,0.5],[1,0.5]];portConstraint=eastwest;rotatable=0;whiteSpace=wrap;html=1;" vertex="1" parent="1waXbNax_19e2kxOFytn-2">
          <mxGeometry y="60" width="189" height="30" as="geometry" />
        </mxCell>
        <mxCell id="1waXbNax_19e2kxOFytn-5" value="subject_id:所属子级分类" style="text;strokeColor=none;fillColor=none;align=left;verticalAlign=middle;spacingLeft=4;spacingRight=4;overflow=hidden;points=[[0,0.5],[1,0.5]];portConstraint=eastwest;rotatable=0;whiteSpace=wrap;html=1;" vertex="1" parent="1waXbNax_19e2kxOFytn-2">
          <mxGeometry y="90" width="189" height="30" as="geometry" />
        </mxCell>
        <mxCell id="1waXbNax_19e2kxOFytn-6" value="subject_parent_id:所属父级分类&lt;br&gt;&lt;span style=&quot;background-color: rgb(195, 171, 208);&quot;&gt;冗余？根据subject_id对应到edu_subject表&amp;nbsp;对应其parent_id&lt;/span&gt;" style="text;strokeColor=none;fillColor=none;align=left;verticalAlign=middle;spacingLeft=4;spacingRight=4;overflow=hidden;points=[[0,0.5],[1,0.5]];portConstraint=eastwest;rotatable=0;whiteSpace=wrap;html=1;" vertex="1" parent="1waXbNax_19e2kxOFytn-2">
          <mxGeometry y="120" width="189" height="51" as="geometry" />
        </mxCell>
        <mxCell id="1waXbNax_19e2kxOFytn-7" value="title:课程名" style="text;strokeColor=none;fillColor=none;align=left;verticalAlign=middle;spacingLeft=4;spacingRight=4;overflow=hidden;points=[[0,0.5],[1,0.5]];portConstraint=eastwest;rotatable=0;whiteSpace=wrap;html=1;" vertex="1" parent="1waXbNax_19e2kxOFytn-2">
          <mxGeometry y="171" width="189" height="30" as="geometry" />
        </mxCell>
        <mxCell id="1waXbNax_19e2kxOFytn-8" value="price:价格" style="text;strokeColor=none;fillColor=none;align=left;verticalAlign=middle;spacingLeft=4;spacingRight=4;overflow=hidden;points=[[0,0.5],[1,0.5]];portConstraint=eastwest;rotatable=0;whiteSpace=wrap;html=1;" vertex="1" parent="1waXbNax_19e2kxOFytn-2">
          <mxGeometry y="201" width="189" height="30" as="geometry" />
        </mxCell>
        <mxCell id="1waXbNax_19e2kxOFytn-9" value="lesson_sum:总课时" style="text;strokeColor=none;fillColor=none;align=left;verticalAlign=middle;spacingLeft=4;spacingRight=4;overflow=hidden;points=[[0,0.5],[1,0.5]];portConstraint=eastwest;rotatable=0;whiteSpace=wrap;html=1;" vertex="1" parent="1waXbNax_19e2kxOFytn-2">
          <mxGeometry y="231" width="189" height="30" as="geometry" />
        </mxCell>
        <mxCell id="1waXbNax_19e2kxOFytn-10" value="cover:封面" style="text;strokeColor=none;fillColor=none;align=left;verticalAlign=middle;spacingLeft=4;spacingRight=4;overflow=hidden;points=[[0,0.5],[1,0.5]];portConstraint=eastwest;rotatable=0;whiteSpace=wrap;html=1;" vertex="1" parent="1waXbNax_19e2kxOFytn-2">
          <mxGeometry y="261" width="189" height="30" as="geometry" />
        </mxCell>
        <mxCell id="1waXbNax_19e2kxOFytn-11" value="buy_count:购买量" style="text;strokeColor=none;fillColor=none;align=left;verticalAlign=middle;spacingLeft=4;spacingRight=4;overflow=hidden;points=[[0,0.5],[1,0.5]];portConstraint=eastwest;rotatable=0;whiteSpace=wrap;html=1;" vertex="1" parent="1waXbNax_19e2kxOFytn-2">
          <mxGeometry y="291" width="189" height="30" as="geometry" />
        </mxCell>
        <mxCell id="1waXbNax_19e2kxOFytn-12" value="view_count:浏览量" style="text;strokeColor=none;fillColor=none;align=left;verticalAlign=middle;spacingLeft=4;spacingRight=4;overflow=hidden;points=[[0,0.5],[1,0.5]];portConstraint=eastwest;rotatable=0;whiteSpace=wrap;html=1;" vertex="1" parent="1waXbNax_19e2kxOFytn-2">
          <mxGeometry y="321" width="189" height="30" as="geometry" />
        </mxCell>
        <mxCell id="1waXbNax_19e2kxOFytn-13" value="version:乐观锁" style="text;strokeColor=none;fillColor=none;align=left;verticalAlign=middle;spacingLeft=4;spacingRight=4;overflow=hidden;points=[[0,0.5],[1,0.5]];portConstraint=eastwest;rotatable=0;whiteSpace=wrap;html=1;" vertex="1" parent="1waXbNax_19e2kxOFytn-2">
          <mxGeometry y="351" width="189" height="30" as="geometry" />
        </mxCell>
        <mxCell id="1waXbNax_19e2kxOFytn-14" value="status:课程是否发布" style="text;strokeColor=none;fillColor=none;align=left;verticalAlign=middle;spacingLeft=4;spacingRight=4;overflow=hidden;points=[[0,0.5],[1,0.5]];portConstraint=eastwest;rotatable=0;whiteSpace=wrap;html=1;" vertex="1" parent="1waXbNax_19e2kxOFytn-2">
          <mxGeometry y="381" width="189" height="30" as="geometry" />
        </mxCell>
        <mxCell id="1waXbNax_19e2kxOFytn-15" value="is_deleted:是否删除" style="text;strokeColor=none;fillColor=none;align=left;verticalAlign=middle;spacingLeft=4;spacingRight=4;overflow=hidden;points=[[0,0.5],[1,0.5]];portConstraint=eastwest;rotatable=0;whiteSpace=wrap;html=1;" vertex="1" parent="1waXbNax_19e2kxOFytn-2">
          <mxGeometry y="411" width="189" height="30" as="geometry" />
        </mxCell>
        <mxCell id="1waXbNax_19e2kxOFytn-16" value="edu_chapter&lt;br&gt;课程的章节" style="swimlane;fontStyle=0;childLayout=stackLayout;horizontal=1;startSize=30;horizontalStack=0;resizeParent=1;resizeParentMax=0;resizeLast=0;collapsible=1;marginBottom=0;whiteSpace=wrap;html=1;" vertex="1" parent="1">
          <mxGeometry x="50" y="72" width="140" height="150" as="geometry" />
        </mxCell>
        <mxCell id="1waXbNax_19e2kxOFytn-17" value="id:章节id" style="text;strokeColor=none;fillColor=none;align=left;verticalAlign=middle;spacingLeft=4;spacingRight=4;overflow=hidden;points=[[0,0.5],[1,0.5]];portConstraint=eastwest;rotatable=0;whiteSpace=wrap;html=1;" vertex="1" parent="1waXbNax_19e2kxOFytn-16">
          <mxGeometry y="30" width="140" height="30" as="geometry" />
        </mxCell>
        <mxCell id="1waXbNax_19e2kxOFytn-18" value="course_id:所属课程的id" style="text;strokeColor=none;fillColor=none;align=left;verticalAlign=middle;spacingLeft=4;spacingRight=4;overflow=hidden;points=[[0,0.5],[1,0.5]];portConstraint=eastwest;rotatable=0;whiteSpace=wrap;html=1;" vertex="1" parent="1waXbNax_19e2kxOFytn-16">
          <mxGeometry y="60" width="140" height="30" as="geometry" />
        </mxCell>
        <mxCell id="1waXbNax_19e2kxOFytn-19" value="title:章节标题" style="text;strokeColor=none;fillColor=none;align=left;verticalAlign=middle;spacingLeft=4;spacingRight=4;overflow=hidden;points=[[0,0.5],[1,0.5]];portConstraint=eastwest;rotatable=0;whiteSpace=wrap;html=1;" vertex="1" parent="1waXbNax_19e2kxOFytn-16">
          <mxGeometry y="90" width="140" height="30" as="geometry" />
        </mxCell>
        <mxCell id="1waXbNax_19e2kxOFytn-20" value="sort:章节排序" style="text;strokeColor=none;fillColor=none;align=left;verticalAlign=middle;spacingLeft=4;spacingRight=4;overflow=hidden;points=[[0,0.5],[1,0.5]];portConstraint=eastwest;rotatable=0;whiteSpace=wrap;html=1;" vertex="1" parent="1waXbNax_19e2kxOFytn-16">
          <mxGeometry y="120" width="140" height="30" as="geometry" />
        </mxCell>
        <mxCell id="1waXbNax_19e2kxOFytn-21" value="crm_banner&lt;br style=&quot;border-color: var(--border-color);&quot;&gt;首页轮播幻灯片" style="swimlane;fontStyle=0;childLayout=stackLayout;horizontal=1;startSize=30;horizontalStack=0;resizeParent=1;resizeParentMax=0;resizeLast=0;collapsible=1;marginBottom=0;whiteSpace=wrap;html=1;" vertex="1" parent="1">
          <mxGeometry x="122" y="-189" width="153" height="180" as="geometry" />
        </mxCell>
        <mxCell id="1waXbNax_19e2kxOFytn-22" value="id：幻灯片id" style="text;strokeColor=none;fillColor=none;align=left;verticalAlign=middle;spacingLeft=4;spacingRight=4;overflow=hidden;points=[[0,0.5],[1,0.5]];portConstraint=eastwest;rotatable=0;whiteSpace=wrap;html=1;" vertex="1" parent="1waXbNax_19e2kxOFytn-21">
          <mxGeometry y="30" width="153" height="30" as="geometry" />
        </mxCell>
        <mxCell id="1waXbNax_19e2kxOFytn-23" value="title：标题" style="text;strokeColor=none;fillColor=none;align=left;verticalAlign=middle;spacingLeft=4;spacingRight=4;overflow=hidden;points=[[0,0.5],[1,0.5]];portConstraint=eastwest;rotatable=0;whiteSpace=wrap;html=1;" vertex="1" parent="1waXbNax_19e2kxOFytn-21">
          <mxGeometry y="60" width="153" height="30" as="geometry" />
        </mxCell>
        <mxCell id="1waXbNax_19e2kxOFytn-24" value="image_url：图片来源地址" style="text;strokeColor=none;fillColor=none;align=left;verticalAlign=middle;spacingLeft=4;spacingRight=4;overflow=hidden;points=[[0,0.5],[1,0.5]];portConstraint=eastwest;rotatable=0;whiteSpace=wrap;html=1;" vertex="1" parent="1waXbNax_19e2kxOFytn-21">
          <mxGeometry y="90" width="153" height="30" as="geometry" />
        </mxCell>
        <mxCell id="1waXbNax_19e2kxOFytn-25" value="sort：排序" style="text;strokeColor=none;fillColor=none;align=left;verticalAlign=middle;spacingLeft=4;spacingRight=4;overflow=hidden;points=[[0,0.5],[1,0.5]];portConstraint=eastwest;rotatable=0;whiteSpace=wrap;html=1;" vertex="1" parent="1waXbNax_19e2kxOFytn-21">
          <mxGeometry y="120" width="153" height="30" as="geometry" />
        </mxCell>
        <mxCell id="1waXbNax_19e2kxOFytn-26" value="is_deleted：是否删除" style="text;strokeColor=none;fillColor=none;align=left;verticalAlign=middle;spacingLeft=4;spacingRight=4;overflow=hidden;points=[[0,0.5],[1,0.5]];portConstraint=eastwest;rotatable=0;whiteSpace=wrap;html=1;" vertex="1" parent="1waXbNax_19e2kxOFytn-21">
          <mxGeometry y="150" width="153" height="30" as="geometry" />
        </mxCell>
        <mxCell id="1waXbNax_19e2kxOFytn-27" style="edgeStyle=orthogonalEdgeStyle;rounded=0;orthogonalLoop=1;jettySize=auto;html=1;exitX=1;exitY=0.5;exitDx=0;exitDy=0;entryX=0;entryY=0.5;entryDx=0;entryDy=0;" edge="1" parent="1" source="1waXbNax_19e2kxOFytn-18" target="1waXbNax_19e2kxOFytn-3">
          <mxGeometry relative="1" as="geometry" />
        </mxCell>
        <mxCell id="1waXbNax_19e2kxOFytn-28" value="edu_comment&lt;br&gt;课程的评论" style="swimlane;fontStyle=0;childLayout=stackLayout;horizontal=1;startSize=30;horizontalStack=0;resizeParent=1;resizeParentMax=0;resizeLast=0;collapsible=1;marginBottom=0;whiteSpace=wrap;html=1;" vertex="1" parent="1">
          <mxGeometry x="702" y="-198" width="140" height="210" as="geometry" />
        </mxCell>
        <mxCell id="1waXbNax_19e2kxOFytn-29" value="content：评论内容" style="text;strokeColor=none;fillColor=none;align=left;verticalAlign=middle;spacingLeft=4;spacingRight=4;overflow=hidden;points=[[0,0.5],[1,0.5]];portConstraint=eastwest;rotatable=0;whiteSpace=wrap;html=1;" vertex="1" parent="1waXbNax_19e2kxOFytn-28">
          <mxGeometry y="30" width="140" height="30" as="geometry" />
        </mxCell>
        <mxCell id="1waXbNax_19e2kxOFytn-30" value="course_id：课程id" style="text;strokeColor=none;fillColor=none;align=left;verticalAlign=middle;spacingLeft=4;spacingRight=4;overflow=hidden;points=[[0,0.5],[1,0.5]];portConstraint=eastwest;rotatable=0;whiteSpace=wrap;html=1;" vertex="1" parent="1waXbNax_19e2kxOFytn-28">
          <mxGeometry y="60" width="140" height="30" as="geometry" />
        </mxCell>
        <mxCell id="1waXbNax_19e2kxOFytn-31" value="member_id:用户id" style="text;strokeColor=none;fillColor=none;align=left;verticalAlign=middle;spacingLeft=4;spacingRight=4;overflow=hidden;points=[[0,0.5],[1,0.5]];portConstraint=eastwest;rotatable=0;whiteSpace=wrap;html=1;" vertex="1" parent="1waXbNax_19e2kxOFytn-28">
          <mxGeometry y="90" width="140" height="30" as="geometry" />
        </mxCell>
        <mxCell id="1waXbNax_19e2kxOFytn-32" value="nickname：用户昵称" style="text;strokeColor=none;fillColor=none;align=left;verticalAlign=middle;spacingLeft=4;spacingRight=4;overflow=hidden;points=[[0,0.5],[1,0.5]];portConstraint=eastwest;rotatable=0;whiteSpace=wrap;html=1;" vertex="1" parent="1waXbNax_19e2kxOFytn-28">
          <mxGeometry y="120" width="140" height="30" as="geometry" />
        </mxCell>
        <mxCell id="1waXbNax_19e2kxOFytn-33" value="avatar：用户头像" style="text;strokeColor=none;fillColor=none;align=left;verticalAlign=middle;spacingLeft=4;spacingRight=4;overflow=hidden;points=[[0,0.5],[1,0.5]];portConstraint=eastwest;rotatable=0;whiteSpace=wrap;html=1;" vertex="1" parent="1waXbNax_19e2kxOFytn-28">
          <mxGeometry y="150" width="140" height="30" as="geometry" />
        </mxCell>
        <mxCell id="1waXbNax_19e2kxOFytn-34" value="is_deleted：是否删除" style="text;strokeColor=none;fillColor=none;align=left;verticalAlign=middle;spacingLeft=4;spacingRight=4;overflow=hidden;points=[[0,0.5],[1,0.5]];portConstraint=eastwest;rotatable=0;whiteSpace=wrap;html=1;" vertex="1" parent="1waXbNax_19e2kxOFytn-28">
          <mxGeometry y="180" width="140" height="30" as="geometry" />
        </mxCell>
        <mxCell id="1waXbNax_19e2kxOFytn-35" style="edgeStyle=orthogonalEdgeStyle;rounded=0;orthogonalLoop=1;jettySize=auto;html=1;exitX=0;exitY=0.5;exitDx=0;exitDy=0;entryX=1;entryY=0.5;entryDx=0;entryDy=0;" edge="1" parent="1" source="1waXbNax_19e2kxOFytn-30" target="1waXbNax_19e2kxOFytn-3">
          <mxGeometry relative="1" as="geometry" />
        </mxCell>
        <mxCell id="1waXbNax_19e2kxOFytn-36" value="edu_course_description&lt;br&gt;课程的描述" style="swimlane;fontStyle=0;childLayout=stackLayout;horizontal=1;startSize=30;horizontalStack=0;resizeParent=1;resizeParentMax=0;resizeLast=0;collapsible=1;marginBottom=0;whiteSpace=wrap;html=1;" vertex="1" parent="1">
          <mxGeometry x="594" y="243" width="140" height="90" as="geometry" />
        </mxCell>
        <mxCell id="1waXbNax_19e2kxOFytn-37" value="id：所描述的课程id" style="text;strokeColor=none;fillColor=none;align=left;verticalAlign=middle;spacingLeft=4;spacingRight=4;overflow=hidden;points=[[0,0.5],[1,0.5]];portConstraint=eastwest;rotatable=0;whiteSpace=wrap;html=1;" vertex="1" parent="1waXbNax_19e2kxOFytn-36">
          <mxGeometry y="30" width="140" height="30" as="geometry" />
        </mxCell>
        <mxCell id="1waXbNax_19e2kxOFytn-38" value="description：描述内容" style="text;strokeColor=none;fillColor=none;align=left;verticalAlign=middle;spacingLeft=4;spacingRight=4;overflow=hidden;points=[[0,0.5],[1,0.5]];portConstraint=eastwest;rotatable=0;whiteSpace=wrap;html=1;" vertex="1" parent="1waXbNax_19e2kxOFytn-36">
          <mxGeometry y="60" width="140" height="30" as="geometry" />
        </mxCell>
        <mxCell id="1waXbNax_19e2kxOFytn-39" style="edgeStyle=orthogonalEdgeStyle;rounded=0;orthogonalLoop=1;jettySize=auto;html=1;exitX=0;exitY=0.5;exitDx=0;exitDy=0;entryX=1;entryY=0.5;entryDx=0;entryDy=0;" edge="1" parent="1" source="1waXbNax_19e2kxOFytn-37" target="1waXbNax_19e2kxOFytn-3">
          <mxGeometry relative="1" as="geometry" />
        </mxCell>
        <mxCell id="1waXbNax_19e2kxOFytn-40" value="edu_subject&lt;br&gt;学科分类" style="swimlane;fontStyle=0;childLayout=stackLayout;horizontal=1;startSize=30;horizontalStack=0;resizeParent=1;resizeParentMax=0;resizeLast=0;collapsible=1;marginBottom=0;whiteSpace=wrap;html=1;" vertex="1" parent="1">
          <mxGeometry x="45" y="324" width="140" height="159" as="geometry" />
        </mxCell>
        <mxCell id="1waXbNax_19e2kxOFytn-41" value="id:自己的id" style="text;strokeColor=none;fillColor=none;align=left;verticalAlign=middle;spacingLeft=4;spacingRight=4;overflow=hidden;points=[[0,0.5],[1,0.5]];portConstraint=eastwest;rotatable=0;whiteSpace=wrap;html=1;" vertex="1" parent="1waXbNax_19e2kxOFytn-40">
          <mxGeometry y="30" width="140" height="30" as="geometry" />
        </mxCell>
        <mxCell id="1waXbNax_19e2kxOFytn-42" value="parent_id：所属父级分类的id&amp;nbsp;没有则为0" style="text;strokeColor=none;fillColor=none;align=left;verticalAlign=middle;spacingLeft=4;spacingRight=4;overflow=hidden;points=[[0,0.5],[1,0.5]];portConstraint=eastwest;rotatable=0;whiteSpace=wrap;html=1;" vertex="1" parent="1waXbNax_19e2kxOFytn-40">
          <mxGeometry y="60" width="140" height="39" as="geometry" />
        </mxCell>
        <mxCell id="1waXbNax_19e2kxOFytn-43" value="sort：排行" style="text;strokeColor=none;fillColor=none;align=left;verticalAlign=middle;spacingLeft=4;spacingRight=4;overflow=hidden;points=[[0,0.5],[1,0.5]];portConstraint=eastwest;rotatable=0;whiteSpace=wrap;html=1;" vertex="1" parent="1waXbNax_19e2kxOFytn-40">
          <mxGeometry y="99" width="140" height="30" as="geometry" />
        </mxCell>
        <mxCell id="1waXbNax_19e2kxOFytn-44" value="title：名称" style="text;strokeColor=none;fillColor=none;align=left;verticalAlign=middle;spacingLeft=4;spacingRight=4;overflow=hidden;points=[[0,0.5],[1,0.5]];portConstraint=eastwest;rotatable=0;whiteSpace=wrap;html=1;" vertex="1" parent="1waXbNax_19e2kxOFytn-40">
          <mxGeometry y="129" width="140" height="30" as="geometry" />
        </mxCell>
        <mxCell id="1waXbNax_19e2kxOFytn-45" style="edgeStyle=orthogonalEdgeStyle;rounded=0;orthogonalLoop=1;jettySize=auto;html=1;exitX=0;exitY=0.5;exitDx=0;exitDy=0;entryX=1;entryY=0.5;entryDx=0;entryDy=0;" edge="1" parent="1" source="1waXbNax_19e2kxOFytn-5" target="1waXbNax_19e2kxOFytn-41">
          <mxGeometry relative="1" as="geometry" />
        </mxCell>
        <mxCell id="1waXbNax_19e2kxOFytn-46" style="edgeStyle=orthogonalEdgeStyle;rounded=0;orthogonalLoop=1;jettySize=auto;html=1;exitX=0;exitY=0.5;exitDx=0;exitDy=0;entryX=1;entryY=0.5;entryDx=0;entryDy=0;" edge="1" parent="1" source="1waXbNax_19e2kxOFytn-6" target="1waXbNax_19e2kxOFytn-42">
          <mxGeometry relative="1" as="geometry">
            <Array as="points">
              <mxPoint x="279" y="281" />
              <mxPoint x="279" y="404" />
            </Array>
          </mxGeometry>
        </mxCell>
        <mxCell id="1waXbNax_19e2kxOFytn-47" value="edu_teacher&lt;br&gt;课程讲师" style="swimlane;fontStyle=0;childLayout=stackLayout;horizontal=1;startSize=30;horizontalStack=0;resizeParent=1;resizeParentMax=0;resizeLast=0;collapsible=1;marginBottom=0;whiteSpace=wrap;html=1;" vertex="1" parent="1">
          <mxGeometry x="750" y="170" width="140" height="270" as="geometry" />
        </mxCell>
        <mxCell id="1waXbNax_19e2kxOFytn-48" value="id：讲师id" style="text;strokeColor=none;fillColor=none;align=left;verticalAlign=middle;spacingLeft=4;spacingRight=4;overflow=hidden;points=[[0,0.5],[1,0.5]];portConstraint=eastwest;rotatable=0;whiteSpace=wrap;html=1;" vertex="1" parent="1waXbNax_19e2kxOFytn-47">
          <mxGeometry y="30" width="140" height="30" as="geometry" />
        </mxCell>
        <mxCell id="1waXbNax_19e2kxOFytn-49" value="name：姓名" style="text;strokeColor=none;fillColor=none;align=left;verticalAlign=middle;spacingLeft=4;spacingRight=4;overflow=hidden;points=[[0,0.5],[1,0.5]];portConstraint=eastwest;rotatable=0;whiteSpace=wrap;html=1;" vertex="1" parent="1waXbNax_19e2kxOFytn-47">
          <mxGeometry y="60" width="140" height="30" as="geometry" />
        </mxCell>
        <mxCell id="1waXbNax_19e2kxOFytn-50" value="intro：讲师简介" style="text;strokeColor=none;fillColor=none;align=left;verticalAlign=middle;spacingLeft=4;spacingRight=4;overflow=hidden;points=[[0,0.5],[1,0.5]];portConstraint=eastwest;rotatable=0;whiteSpace=wrap;html=1;" vertex="1" parent="1waXbNax_19e2kxOFytn-47">
          <mxGeometry y="90" width="140" height="30" as="geometry" />
        </mxCell>
        <mxCell id="1waXbNax_19e2kxOFytn-51" value="career：资历" style="text;strokeColor=none;fillColor=none;align=left;verticalAlign=middle;spacingLeft=4;spacingRight=4;overflow=hidden;points=[[0,0.5],[1,0.5]];portConstraint=eastwest;rotatable=0;whiteSpace=wrap;html=1;" vertex="1" parent="1waXbNax_19e2kxOFytn-47">
          <mxGeometry y="120" width="140" height="30" as="geometry" />
        </mxCell>
        <mxCell id="1waXbNax_19e2kxOFytn-52" value="level：头衔，值取0/1" style="text;strokeColor=none;fillColor=none;align=left;verticalAlign=middle;spacingLeft=4;spacingRight=4;overflow=hidden;points=[[0,0.5],[1,0.5]];portConstraint=eastwest;rotatable=0;whiteSpace=wrap;html=1;" vertex="1" parent="1waXbNax_19e2kxOFytn-47">
          <mxGeometry y="150" width="140" height="30" as="geometry" />
        </mxCell>
        <mxCell id="1waXbNax_19e2kxOFytn-53" value="avatar：头像" style="text;strokeColor=none;fillColor=none;align=left;verticalAlign=middle;spacingLeft=4;spacingRight=4;overflow=hidden;points=[[0,0.5],[1,0.5]];portConstraint=eastwest;rotatable=0;whiteSpace=wrap;html=1;" vertex="1" parent="1waXbNax_19e2kxOFytn-47">
          <mxGeometry y="180" width="140" height="30" as="geometry" />
        </mxCell>
        <mxCell id="1waXbNax_19e2kxOFytn-54" value="sort：排序" style="text;strokeColor=none;fillColor=none;align=left;verticalAlign=middle;spacingLeft=4;spacingRight=4;overflow=hidden;points=[[0,0.5],[1,0.5]];portConstraint=eastwest;rotatable=0;whiteSpace=wrap;html=1;" vertex="1" parent="1waXbNax_19e2kxOFytn-47">
          <mxGeometry y="210" width="140" height="30" as="geometry" />
        </mxCell>
        <mxCell id="1waXbNax_19e2kxOFytn-55" value="is_deleted:是否删除" style="text;strokeColor=none;fillColor=none;align=left;verticalAlign=middle;spacingLeft=4;spacingRight=4;overflow=hidden;points=[[0,0.5],[1,0.5]];portConstraint=eastwest;rotatable=0;whiteSpace=wrap;html=1;" vertex="1" parent="1waXbNax_19e2kxOFytn-47">
          <mxGeometry y="240" width="140" height="30" as="geometry" />
        </mxCell>
        <mxCell id="1waXbNax_19e2kxOFytn-57" value="ucenter_member" style="swimlane;fontStyle=0;childLayout=stackLayout;horizontal=1;startSize=30;horizontalStack=0;resizeParent=1;resizeParentMax=0;resizeLast=0;collapsible=1;marginBottom=0;whiteSpace=wrap;html=1;" vertex="1" parent="1">
          <mxGeometry x="337.5" y="-252" width="162" height="360" as="geometry" />
        </mxCell>
        <mxCell id="1waXbNax_19e2kxOFytn-58" value="id：用户id" style="text;strokeColor=none;fillColor=none;align=left;verticalAlign=middle;spacingLeft=4;spacingRight=4;overflow=hidden;points=[[0,0.5],[1,0.5]];portConstraint=eastwest;rotatable=0;whiteSpace=wrap;html=1;" vertex="1" parent="1waXbNax_19e2kxOFytn-57">
          <mxGeometry y="30" width="162" height="30" as="geometry" />
        </mxCell>
        <mxCell id="1waXbNax_19e2kxOFytn-59" value="openid：微信的唯一id" style="text;strokeColor=none;fillColor=none;align=left;verticalAlign=middle;spacingLeft=4;spacingRight=4;overflow=hidden;points=[[0,0.5],[1,0.5]];portConstraint=eastwest;rotatable=0;whiteSpace=wrap;html=1;" vertex="1" parent="1waXbNax_19e2kxOFytn-57">
          <mxGeometry y="60" width="162" height="30" as="geometry" />
        </mxCell>
        <mxCell id="1waXbNax_19e2kxOFytn-60" value="mobile：手机号" style="text;strokeColor=none;fillColor=none;align=left;verticalAlign=middle;spacingLeft=4;spacingRight=4;overflow=hidden;points=[[0,0.5],[1,0.5]];portConstraint=eastwest;rotatable=0;whiteSpace=wrap;html=1;" vertex="1" parent="1waXbNax_19e2kxOFytn-57">
          <mxGeometry y="90" width="162" height="30" as="geometry" />
        </mxCell>
        <mxCell id="1waXbNax_19e2kxOFytn-61" value="password：密码" style="text;strokeColor=none;fillColor=none;align=left;verticalAlign=middle;spacingLeft=4;spacingRight=4;overflow=hidden;points=[[0,0.5],[1,0.5]];portConstraint=eastwest;rotatable=0;whiteSpace=wrap;html=1;" vertex="1" parent="1waXbNax_19e2kxOFytn-57">
          <mxGeometry y="120" width="162" height="30" as="geometry" />
        </mxCell>
        <mxCell id="1waXbNax_19e2kxOFytn-62" value="nickname：昵称" style="text;strokeColor=none;fillColor=none;align=left;verticalAlign=middle;spacingLeft=4;spacingRight=4;overflow=hidden;points=[[0,0.5],[1,0.5]];portConstraint=eastwest;rotatable=0;whiteSpace=wrap;html=1;" vertex="1" parent="1waXbNax_19e2kxOFytn-57">
          <mxGeometry y="150" width="162" height="30" as="geometry" />
        </mxCell>
        <mxCell id="1waXbNax_19e2kxOFytn-63" value="sex：性别" style="text;strokeColor=none;fillColor=none;align=left;verticalAlign=middle;spacingLeft=4;spacingRight=4;overflow=hidden;points=[[0,0.5],[1,0.5]];portConstraint=eastwest;rotatable=0;whiteSpace=wrap;html=1;" vertex="1" parent="1waXbNax_19e2kxOFytn-57">
          <mxGeometry y="180" width="162" height="30" as="geometry" />
        </mxCell>
        <mxCell id="1waXbNax_19e2kxOFytn-64" value="age：年龄" style="text;strokeColor=none;fillColor=none;align=left;verticalAlign=middle;spacingLeft=4;spacingRight=4;overflow=hidden;points=[[0,0.5],[1,0.5]];portConstraint=eastwest;rotatable=0;whiteSpace=wrap;html=1;" vertex="1" parent="1waXbNax_19e2kxOFytn-57">
          <mxGeometry y="210" width="162" height="30" as="geometry" />
        </mxCell>
        <mxCell id="1waXbNax_19e2kxOFytn-65" value="avatar：头像" style="text;strokeColor=none;fillColor=none;align=left;verticalAlign=middle;spacingLeft=4;spacingRight=4;overflow=hidden;points=[[0,0.5],[1,0.5]];portConstraint=eastwest;rotatable=0;whiteSpace=wrap;html=1;" vertex="1" parent="1waXbNax_19e2kxOFytn-57">
          <mxGeometry y="240" width="162" height="30" as="geometry" />
        </mxCell>
        <mxCell id="1waXbNax_19e2kxOFytn-66" value="sign：个性签名" style="text;strokeColor=none;fillColor=none;align=left;verticalAlign=middle;spacingLeft=4;spacingRight=4;overflow=hidden;points=[[0,0.5],[1,0.5]];portConstraint=eastwest;rotatable=0;whiteSpace=wrap;html=1;" vertex="1" parent="1waXbNax_19e2kxOFytn-57">
          <mxGeometry y="270" width="162" height="30" as="geometry" />
        </mxCell>
        <mxCell id="1waXbNax_19e2kxOFytn-67" value="is_deleted:是否注销" style="text;strokeColor=none;fillColor=none;align=left;verticalAlign=middle;spacingLeft=4;spacingRight=4;overflow=hidden;points=[[0,0.5],[1,0.5]];portConstraint=eastwest;rotatable=0;whiteSpace=wrap;html=1;" vertex="1" parent="1waXbNax_19e2kxOFytn-57">
          <mxGeometry y="300" width="162" height="30" as="geometry" />
        </mxCell>
        <mxCell id="1waXbNax_19e2kxOFytn-68" value="is_disabled：是否被禁用" style="text;strokeColor=none;fillColor=none;align=left;verticalAlign=middle;spacingLeft=4;spacingRight=4;overflow=hidden;points=[[0,0.5],[1,0.5]];portConstraint=eastwest;rotatable=0;whiteSpace=wrap;html=1;" vertex="1" parent="1waXbNax_19e2kxOFytn-57">
          <mxGeometry y="330" width="162" height="30" as="geometry" />
        </mxCell>
        <mxCell id="1waXbNax_19e2kxOFytn-69" style="edgeStyle=orthogonalEdgeStyle;rounded=0;orthogonalLoop=1;jettySize=auto;html=1;exitX=0;exitY=0.5;exitDx=0;exitDy=0;entryX=1;entryY=0.5;entryDx=0;entryDy=0;" edge="1" parent="1" source="1waXbNax_19e2kxOFytn-32" target="1waXbNax_19e2kxOFytn-62">
          <mxGeometry relative="1" as="geometry">
            <Array as="points">
              <mxPoint x="558" y="-69" />
              <mxPoint x="558" y="-87" />
            </Array>
          </mxGeometry>
        </mxCell>
        <mxCell id="1waXbNax_19e2kxOFytn-70" style="edgeStyle=orthogonalEdgeStyle;rounded=0;orthogonalLoop=1;jettySize=auto;html=1;exitX=0;exitY=0.5;exitDx=0;exitDy=0;entryX=1;entryY=0.5;entryDx=0;entryDy=0;" edge="1" parent="1" source="1waXbNax_19e2kxOFytn-33" target="1waXbNax_19e2kxOFytn-65">
          <mxGeometry relative="1" as="geometry">
            <Array as="points">
              <mxPoint x="639" y="-39" />
              <mxPoint x="639" y="3" />
            </Array>
          </mxGeometry>
        </mxCell>
        <mxCell id="1waXbNax_19e2kxOFytn-71" style="edgeStyle=orthogonalEdgeStyle;rounded=0;orthogonalLoop=1;jettySize=auto;html=1;exitX=0;exitY=0.5;exitDx=0;exitDy=0;entryX=1;entryY=0.5;entryDx=0;entryDy=0;" edge="1" parent="1" source="1waXbNax_19e2kxOFytn-31" target="1waXbNax_19e2kxOFytn-58">
          <mxGeometry relative="1" as="geometry" />
        </mxCell>
        <mxCell id="1waXbNax_19e2kxOFytn-72" value="edu_video&lt;br&gt;小节及其视频" style="swimlane;fontStyle=0;childLayout=stackLayout;horizontal=1;startSize=30;horizontalStack=0;resizeParent=1;resizeParentMax=0;resizeLast=0;collapsible=1;marginBottom=0;whiteSpace=wrap;html=1;" vertex="1" parent="1">
          <mxGeometry x="900" y="-9" width="180" height="420" as="geometry" />
        </mxCell>
        <mxCell id="1waXbNax_19e2kxOFytn-73" value="id：小节的id" style="text;strokeColor=none;fillColor=none;align=left;verticalAlign=middle;spacingLeft=4;spacingRight=4;overflow=hidden;points=[[0,0.5],[1,0.5]];portConstraint=eastwest;rotatable=0;whiteSpace=wrap;html=1;" vertex="1" parent="1waXbNax_19e2kxOFytn-72">
          <mxGeometry y="30" width="180" height="30" as="geometry" />
        </mxCell>
        <mxCell id="1waXbNax_19e2kxOFytn-74" value="course_id：所属课程id" style="text;strokeColor=none;fillColor=none;align=left;verticalAlign=middle;spacingLeft=4;spacingRight=4;overflow=hidden;points=[[0,0.5],[1,0.5]];portConstraint=eastwest;rotatable=0;whiteSpace=wrap;html=1;" vertex="1" parent="1waXbNax_19e2kxOFytn-72">
          <mxGeometry y="60" width="180" height="30" as="geometry" />
        </mxCell>
        <mxCell id="1waXbNax_19e2kxOFytn-75" value="chapter_id：所属章节id" style="text;strokeColor=none;fillColor=none;align=left;verticalAlign=middle;spacingLeft=4;spacingRight=4;overflow=hidden;points=[[0,0.5],[1,0.5]];portConstraint=eastwest;rotatable=0;whiteSpace=wrap;html=1;" vertex="1" parent="1waXbNax_19e2kxOFytn-72">
          <mxGeometry y="90" width="180" height="30" as="geometry" />
        </mxCell>
        <mxCell id="1waXbNax_19e2kxOFytn-76" value="title：小节名称" style="text;strokeColor=none;fillColor=none;align=left;verticalAlign=middle;spacingLeft=4;spacingRight=4;overflow=hidden;points=[[0,0.5],[1,0.5]];portConstraint=eastwest;rotatable=0;whiteSpace=wrap;html=1;" vertex="1" parent="1waXbNax_19e2kxOFytn-72">
          <mxGeometry y="120" width="180" height="30" as="geometry" />
        </mxCell>
        <mxCell id="1waXbNax_19e2kxOFytn-77" value="video_source_id：视频资源" style="text;strokeColor=none;fillColor=none;align=left;verticalAlign=middle;spacingLeft=4;spacingRight=4;overflow=hidden;points=[[0,0.5],[1,0.5]];portConstraint=eastwest;rotatable=0;whiteSpace=wrap;html=1;" vertex="1" parent="1waXbNax_19e2kxOFytn-72">
          <mxGeometry y="150" width="180" height="30" as="geometry" />
        </mxCell>
        <mxCell id="1waXbNax_19e2kxOFytn-78" value="video_origin_name：原始视频名" style="text;strokeColor=none;fillColor=none;align=left;verticalAlign=middle;spacingLeft=4;spacingRight=4;overflow=hidden;points=[[0,0.5],[1,0.5]];portConstraint=eastwest;rotatable=0;whiteSpace=wrap;html=1;" vertex="1" parent="1waXbNax_19e2kxOFytn-72">
          <mxGeometry y="180" width="180" height="30" as="geometry" />
        </mxCell>
        <mxCell id="1waXbNax_19e2kxOFytn-79" value="sort：排序" style="text;strokeColor=none;fillColor=none;align=left;verticalAlign=middle;spacingLeft=4;spacingRight=4;overflow=hidden;points=[[0,0.5],[1,0.5]];portConstraint=eastwest;rotatable=0;whiteSpace=wrap;html=1;" vertex="1" parent="1waXbNax_19e2kxOFytn-72">
          <mxGeometry y="210" width="180" height="30" as="geometry" />
        </mxCell>
        <mxCell id="1waXbNax_19e2kxOFytn-80" value="play_count：播放次数" style="text;strokeColor=none;fillColor=none;align=left;verticalAlign=middle;spacingLeft=4;spacingRight=4;overflow=hidden;points=[[0,0.5],[1,0.5]];portConstraint=eastwest;rotatable=0;whiteSpace=wrap;html=1;" vertex="1" parent="1waXbNax_19e2kxOFytn-72">
          <mxGeometry y="240" width="180" height="30" as="geometry" />
        </mxCell>
        <mxCell id="1waXbNax_19e2kxOFytn-81" value="is_free：是否免费" style="text;strokeColor=none;fillColor=none;align=left;verticalAlign=middle;spacingLeft=4;spacingRight=4;overflow=hidden;points=[[0,0.5],[1,0.5]];portConstraint=eastwest;rotatable=0;whiteSpace=wrap;html=1;" vertex="1" parent="1waXbNax_19e2kxOFytn-72">
          <mxGeometry y="270" width="180" height="30" as="geometry" />
        </mxCell>
        <mxCell id="1waXbNax_19e2kxOFytn-82" value="duration：视频长度" style="text;strokeColor=none;fillColor=none;align=left;verticalAlign=middle;spacingLeft=4;spacingRight=4;overflow=hidden;points=[[0,0.5],[1,0.5]];portConstraint=eastwest;rotatable=0;whiteSpace=wrap;html=1;" vertex="1" parent="1waXbNax_19e2kxOFytn-72">
          <mxGeometry y="300" width="180" height="30" as="geometry" />
        </mxCell>
        <mxCell id="1waXbNax_19e2kxOFytn-83" value="status：视频上传状态" style="text;strokeColor=none;fillColor=none;align=left;verticalAlign=middle;spacingLeft=4;spacingRight=4;overflow=hidden;points=[[0,0.5],[1,0.5]];portConstraint=eastwest;rotatable=0;whiteSpace=wrap;html=1;" vertex="1" parent="1waXbNax_19e2kxOFytn-72">
          <mxGeometry y="330" width="180" height="30" as="geometry" />
        </mxCell>
        <mxCell id="1waXbNax_19e2kxOFytn-84" value="size：视频的大小" style="text;strokeColor=none;fillColor=none;align=left;verticalAlign=middle;spacingLeft=4;spacingRight=4;overflow=hidden;points=[[0,0.5],[1,0.5]];portConstraint=eastwest;rotatable=0;whiteSpace=wrap;html=1;" vertex="1" parent="1waXbNax_19e2kxOFytn-72">
          <mxGeometry y="360" width="180" height="30" as="geometry" />
        </mxCell>
        <mxCell id="1waXbNax_19e2kxOFytn-85" value="version：乐观锁" style="text;strokeColor=none;fillColor=none;align=left;verticalAlign=middle;spacingLeft=4;spacingRight=4;overflow=hidden;points=[[0,0.5],[1,0.5]];portConstraint=eastwest;rotatable=0;whiteSpace=wrap;html=1;" vertex="1" parent="1waXbNax_19e2kxOFytn-72">
          <mxGeometry y="390" width="180" height="30" as="geometry" />
        </mxCell>
        <mxCell id="1waXbNax_19e2kxOFytn-86" style="edgeStyle=orthogonalEdgeStyle;rounded=0;orthogonalLoop=1;jettySize=auto;html=1;exitX=0;exitY=0.5;exitDx=0;exitDy=0;entryX=1;entryY=0.5;entryDx=0;entryDy=0;" edge="1" parent="1" source="1waXbNax_19e2kxOFytn-74" target="1waXbNax_19e2kxOFytn-3">
          <mxGeometry relative="1" as="geometry" />
        </mxCell>
        <mxCell id="1waXbNax_19e2kxOFytn-87" style="edgeStyle=orthogonalEdgeStyle;rounded=0;orthogonalLoop=1;jettySize=auto;html=1;exitX=0;exitY=0.5;exitDx=0;exitDy=0;entryX=1;entryY=0.5;entryDx=0;entryDy=0;" edge="1" parent="1" source="1waXbNax_19e2kxOFytn-75" target="1waXbNax_19e2kxOFytn-17">
          <mxGeometry relative="1" as="geometry" />
        </mxCell>
        <mxCell id="1waXbNax_19e2kxOFytn-100" style="edgeStyle=none;curved=1;rounded=0;orthogonalLoop=1;jettySize=auto;html=1;entryX=1.002;entryY=0.552;entryDx=0;entryDy=0;entryPerimeter=0;fontSize=12;startSize=8;endSize=8;" edge="1" parent="1" source="1waXbNax_19e2kxOFytn-48" target="1waXbNax_19e2kxOFytn-4">
          <mxGeometry relative="1" as="geometry" />
        </mxCell>
      </root>
    </mxGraphModel>
  </diagram>
</mxfile>
